<svg width="64" height="64" fill="none" xmlns="http://www.w3.org/2000/svg"><g clip-path="url(#clip0_335_1424)"><path d="M32 0C14.356 0 0 14.356 0 32s14.356 32 32 32 32-14.356 32-32S49.644 0 32 0zm2.032 10.396l8.228-4.424a28.132 28.132 0 0111.556 8.52l-1.96 9.048-6.276 3.076-11.548-8.412v-7.808zM21.808 5.948l8.228 4.44v7.816l-11.54 8.412-6.308-3.08-1.96-9.104a28.092 28.092 0 0111.58-8.484zM8.92 47.816A27.815 27.815 0 014.14 34.72l6.772-7.356 6.176 3.02 4.652 13.212-3.932 4.712-8.888-.492zm30.212 11.228C36.848 59.648 34.468 60 32 60a27.9 27.9 0 01-8.556-1.348l-2.516-7.832L24.94 46h14.136l3.94 4.664-3.884 8.38zm7.004-10.872l-3.868-4.58 4.716-13.208 6.148-3.012 6.732 7.352c-.404 4.164-1.744 8.048-3.78 11.484l-9.948 1.964z" fill="url(#paint0_linear_335_1424)"/></g><defs><linearGradient id="paint0_linear_335_1424" x1="32" y1="0" x2="32" y2="64" gradientUnits="userSpaceOnUse"><stop stop-color="#20BA72"/><stop offset="1" stop-color="#20BA95"/></linearGradient><clipPath id="clip0_335_1424"><path fill="#fff" d="M0 0h64v64H0z"/></clipPath></defs></svg>