<svg width="81" height="27" fill="none" xmlns="http://www.w3.org/2000/svg"><path d="M5.39 0H25l-1.294 4H4l1.39-4zm-2 6H23l-1.294 3H2l1.39-3zm-2.066 5H20l-1.233 4H0l1.324-4z" fill="#00ABFF"/><path d="M80.022 6H65.025v11.913h7.58c1.553 0 2.812 1.18 2.812 2.634 0 1.455-1.259 2.635-2.812 2.635h-7.58V27h9.006C77.88 27 81 24.077 81 20.47c0-3.605-3.12-6.528-6.969-6.528h-4.034V9.895h8.558L80.022 6zM38.111 26.962H29V22.99h7.723c1.429 0 2.587-1.086 2.587-2.425 0-1.339-1.158-2.424-2.587-2.424H29v-2.367h10.817c2.826 0 5.117 2.146 5.117 4.794 0 3.53-3.055 6.393-6.823 6.393z" fill="#233F81"/><path d="M44.12 11.804v-2.08C44.12 7.667 42.34 6 40.144 6H29v4.01h7.947c1.08 0 1.956.822 1.956 1.834v.496c0 1.012-.874 1.83-1.954 1.83H29v1.604h10.88c2.342 0 4.24-1.777 4.24-3.97z" fill="#233F81"/><path d="M29 9.97h4.972v13.06H29V9.97zM63.721 6H45.382v3.985H51.7V27h4.931V9.985h5.542L63.721 6zm1.304 0h4.972v21h-4.972V6z" fill="#233F81"/></svg>