<svg width="108" height="14" fill="none" xmlns="http://www.w3.org/2000/svg"><path d="M86.013 3.441h-1.536l-3.673 9.134h1.425l.823-1.97h4.331l.823 1.97h1.48l-3.673-9.134zm-2.358 5.731l1.59-3.88 1.59 3.88h-3.18zM108 3.442h-1.809l-3.51 3.82h-1.37v-3.82H99.94v9.133h1.371v-3.82h1.37l3.455 3.82h1.809l-4.057-4.537L108 3.441zM80.09 8.873c-.109-.299-.328-.597-.547-.836-.22-.239-.494-.418-.823-.597a2.376 2.376 0 00-.932-.179h-3.564V4.874h5.209V3.38h-6.525v9.194h4.88c.658 0 1.261-.298 1.7-.776a2.857 2.857 0 00.713-1.85c.11-.359.054-.717-.11-1.075zm-1.48 1.91c-.219.24-.493.358-.767.358h-3.51V8.755h3.51c.274 0 .548.119.767.358.22.239.33.537.33.836 0 .298-.11.597-.33.835zm18.314-3.522h-4.88v-3.82h-1.37v9.133h1.37v-3.82h4.88v3.82h1.37V3.441h-1.37v3.821z" fill="#003791"/><path d="M49.51 3.417l-3.453 3.81h-1.37v-3.81h-1.37v9.107h1.37v-3.81h1.37l3.453 3.81h1.808L47.208 8l4.165-4.583H49.51zM17.015 6.036a3.102 3.102 0 011.096-1.012 2.99 2.99 0 011.424-.357c.713 0 1.48.297 2.028.833l1.096-1.19c-.548-.536-1.206-.953-1.918-1.131-.712-.179-1.48-.239-2.192 0-.712.178-1.37.535-1.973 1.071a5.12 5.12 0 00-1.26 1.964c-.274.774-.384 1.548-.274 2.381.11.774.329 1.548.767 2.203.438.654.987 1.19 1.644 1.607.658.416 1.37.595 2.137.595a4.22 4.22 0 003.014-1.25l-1.096-1.131c-.383.357-.822.595-1.315.655-.493.119-.986.119-1.425-.06-.493-.119-.877-.416-1.26-.774-.384-.357-.603-.833-.767-1.309a3.63 3.63 0 01-.165-1.548c0-.595.165-1.13.439-1.547zm14.357-1.607A4.335 4.335 0 0028.139 3c-.877 0-1.809.298-2.521.833-.767.536-1.315 1.31-1.699 2.203a5.623 5.623 0 00-.274 2.857 5.057 5.057 0 001.26 2.56c.658.714 1.425 1.19 2.357 1.368.877.179 1.808.12 2.63-.297.822-.357 1.534-1.012 2.028-1.845a5.412 5.412 0 00.767-2.739c.055-1.309-.439-2.559-1.315-3.511zm-.384 4.821a3.41 3.41 0 01-.658 1.071 3.107 3.107 0 01-.986.715 2.664 2.664 0 01-1.15.238 2.901 2.901 0 01-1.7-.536c-.493-.357-.876-.893-1.15-1.488a3.724 3.724 0 01-.165-1.905c.11-.655.384-1.25.822-1.726a2.9 2.9 0 011.59-.893 2.937 2.937 0 011.753.179 2.86 2.86 0 011.37 1.25c.329.535.493 1.19.493 1.845 0 .417-.11.833-.219 1.25z" fill="#FF4B5F"/><path d="M59.154 4.429A4.335 4.335 0 0055.92 3c-.877 0-1.809.298-2.52.833-.768.536-1.316 1.31-1.7 2.203a5.623 5.623 0 00-.274 2.857 5.057 5.057 0 001.26 2.56c.658.714 1.425 1.19 2.357 1.368.877.179 1.808.12 2.63-.297.822-.357 1.535-1.012 2.028-1.845a5.412 5.412 0 00.767-2.739c.055-1.309-.438-2.559-1.315-3.511zM58.77 9.25a3.41 3.41 0 01-.657 1.071 3.105 3.105 0 01-.987.715 2.664 2.664 0 01-1.15.238 2.901 2.901 0 01-1.7-.536c-.492-.357-.876-.893-1.15-1.488a3.724 3.724 0 01-.164-1.905c.11-.655.383-1.25.822-1.726a2.899 2.899 0 011.589-.893 2.937 2.937 0 011.753.179 2.86 2.86 0 011.37 1.25c.329.535.493 1.19.493 1.845 0 .417-.054.833-.219 1.25zm11.288-5.833L66.661 7.82l-3.397-4.404h-1.37v9.107h1.37V5.857l3.397 4.405 3.397-4.345v6.607h1.316V3.417h-1.316zM40.851 7.94c.22-.238.439-.535.549-.892.11-.358.219-.655.219-1.012s-.055-.715-.165-1.012a1.98 1.98 0 00-.548-.834c-.219-.238-.493-.416-.767-.595a2.379 2.379 0 00-.931-.178h-4.932v9.107h4.932c.657 0 1.26-.298 1.698-.774a2.727 2.727 0 00.713-1.845c0-.357-.055-.715-.22-1.072-.11-.357-.328-.654-.547-.893zm-.876 2.798c-.22.238-.493.357-.767.357h-3.562v-2.38h3.562c.274 0 .548.118.767.356a1.227 1.227 0 010 1.667zm.438-4.167c-.055.179-.164.298-.274.417-.11.12-.274.179-.438.238a.703.703 0 01-.493 0h-3.562V4.905h3.562a.703.703 0 01.493 0c.164.06.328.119.438.238.11.119.22.238.274.417.055.178.11.357.11.535 0 .179-.055.298-.11.476z" fill="#FF4B5F"/><path d="M8.37.187V3.84H6.948c-.853 0-1.65.342-2.275.97-.626.628-.967 1.427-.967 2.283 0 .857.341 1.656.967 2.284.625.627 1.422.97 2.275.97H8.37V14a7.12 7.12 0 004.038-2.454A7.108 7.108 0 0014 7.093a7.107 7.107 0 00-1.592-4.452A6.563 6.563 0 008.37.187z" fill="#003791"/><path d="M2.046 2.049A7.078 7.078 0 000 7a7.08 7.08 0 002.046 4.951A7.06 7.06 0 006.991 14h.284v-2.618h-.284c-1.137-.057-2.217-.512-2.955-1.309-.796-.797-1.194-1.878-1.194-3.016 0-1.138.455-2.22 1.194-3.016.795-.797 1.875-1.31 2.955-1.31h.284V0h-.284a7.06 7.06 0 00-4.945 2.049z" fill="#FF4B5F"/></svg>