<svg width="115" height="21" fill="none" xmlns="http://www.w3.org/2000/svg"><path d="M0 0h21v10H0V0z" fill="#E7002A"/><path d="M34.55 9.5a1.562 1.562 0 001.187-.448 1.539 1.539 0 00.452-1.176 1.691 1.691 0 00-.459-1.316 1.718 1.718 0 00-1.294-.537h-4.511v3.449l4.626.028zm-.085-5.158a3.46 3.46 0 012.666.949 3.404 3.404 0 011.04 2.613c0 2.137-1.437 3.363-3.706 3.363h-4.511v3.476H28V4.342h6.465zm10.889 1.425c-2.413 0-4.08 1.624-4.08 3.733s1.58 3.733 4.08 3.733 4.051-1.596 4.051-3.733-1.551-3.733-4.051-3.733zm0 9.204c-3.333 0-6.091-2.194-6.091-5.471S42.02 4 45.354 4s6.091 2.251 6.091 5.528c0 3.278-2.7 5.472-6.062 5.472l-.029-.028zM59.49 15c-3.505 0-6.148-2.194-6.148-5.5s2.672-5.471 6.148-5.471a7.858 7.858 0 014.884 1.538l-1.034 1.54a5.963 5.963 0 00-3.764-1.283c-2.557 0-4.137 1.596-4.137 3.676s1.609 3.676 4.166 3.676a6.21 6.21 0 003.85-1.254l1.034 1.454a7.946 7.946 0 01-5.028 1.567l.03.057zm22.468-4.474h4.023L83.998 6.25l-2.04 4.275zm-.804 1.681l-1.207 2.508H77.85l5.085-10.373h2.04l5.115 10.373h-2.098l-1.207-2.508h-5.631zm19.193 2.536V10.27h-6.838v4.446h-1.925V4.342h1.925V8.56h6.838V4.342h1.954v10.373l-1.954.028zm4.827 0V4.342h1.925v4.816l5.258-4.816h2.384l-5.401 4.987 5.66 5.386h-2.615l-5.286-5.044v5.044l-1.925.028zm-31.95-1.766h-4.655V9.813h4.655c1.207 0 1.896.627 1.896 1.568 0 .94-.546 1.567-1.896 1.567v.029zm-.115-4.873h-4.54V5.938h7.47V4.313h-9.423v10.373h6.464c2.27 0 3.85-1.225 3.85-3.277 0-2.051-1.58-3.277-3.85-3.277M0 11h21v10H0V11z" fill="#000"/><path d="M4 10h14v2H4v-2z" fill="#fff"/></svg>