<svg width="87" height="21" fill="none" xmlns="http://www.w3.org/2000/svg"><path d="M10.5 18.338a7.838 7.838 0 007.838-7.838l2.486-1.923c.116.624.176 1.266.176 1.923C21 16.299 16.299 21 10.5 21S0 16.299 0 10.5 4.701 0 10.5 0c2.458 0 4.718.844 6.507 2.259l-2.028 1.808A7.838 7.838 0 1010.5 18.338z" fill="url(#paint0_angular_603_6571)"/><path d="M18.6 4L20 6.314 10.122 14 6 11.273V7.967l4.122 2.645L18.6 4z" fill="url(#paint1_linear_603_6571)"/><path d="M58.049 3.265H45.862v7.965h7.093c1.14 0 2.063.951 2.063 2.124s-.924 2.124-2.063 2.124h-7.093v2.39h7.835c2.403 0 4.352-2.006 4.352-4.48 0-2.475-1.949-4.48-4.353-4.48h-4.803V5.521h6.125l3.03-2.257zm13.669 0H61.08v14.536h10.64v-2.39h-7.61v-3.915h6.578V9.239H64.11V5.522h4.578l3.03-2.257zM77.844 17.8h-3.03v-6.504h6.157c1.55 0 2.805-1.292 2.805-2.887 0-1.594-1.256-2.887-2.805-2.887h-6.157v-2.39h7.06C84.705 3.133 87 5.496 87 8.41s-2.295 5.277-5.126 5.277h-4.03V17.8zM42.831 4.858l-2.127 1.726c-1.238-.743-2.322-.93-2.709-.93-4.333-.105-5.158 3.187-5.029 4.846.516 5.735 5.373 5.088 7.738 4.049l2.127 1.659c-.773.93-3.61 1.792-5.351 1.792-1.87 0-7.48-.93-7.48-7.5S35.158 3 37.802 3c2.115 0 4.299 1.217 5.03 1.858z" fill="#1BA136"/><path d="M45.862 11.23h3.095v4.248h-3.095V11.23zm28.951-5.708h3.03v5.84h-3.03v-5.84z" fill="#1BA136"/><defs><radialGradient id="paint0_angular_603_6571" cx="0" cy="0" r="1" gradientUnits="userSpaceOnUse" gradientTransform="rotate(90 0 10.5) scale(10.5)"><stop offset=".203" stop-color="#DFFA16"/><stop offset=".308" stop-color="#8CFB6B"/><stop offset=".37" stop-color="#10E7EF"/><stop offset=".495" stop-color="#0DA9DA"/><stop offset=".583" stop-color="#0B86CE"/><stop offset=".729" stop-color="#219E39"/><stop offset="1" stop-color="#7EF629"/></radialGradient><linearGradient id="paint1_linear_603_6571" x1="5.689" y1="10.033" x2="19.977" y2="6.043" gradientUnits="userSpaceOnUse"><stop stop-color="#219F36"/><stop offset="1" stop-color="#24A139"/></linearGradient></defs></svg>