<svg width="108" height="26" fill="none" xmlns="http://www.w3.org/2000/svg"><path d="M34 12.057h2.96v4.676h2.155v-4.676h2.96v-1.696H34v1.696zm10.92 2.004v-3.674h-2.083v6.346h1.84l3.591-3.714v3.714h2.084V10.36h-1.84l-3.592 3.7zm12.369-1.336H53.94v-2.338h-2.083v6.346h2.084v-2.378h3.348v2.378h2.083v-6.346h-2.083v2.338zm9.35-.494a4.78 4.78 0 00-1.523-.174H62.96v-1.67h-2.083v6.346l4.224-.027c.442.007.88-.04 1.308-.147 1.085-.247 1.832-1.165 1.796-2.204.043-.952-.593-1.82-1.566-2.124zm-1.063 2.872a2.124 2.124 0 01-.82.094H62.96V13.58h1.797c.27-.017.542.014.804.08.331.09.554.374.546.695a.797.797 0 01-.531.748zm11.358-4.716H74.32l-2.514 2.392h-.575v-2.392h-2.084v6.346h2.084v-2.405h.575l2.486 2.405h2.773l-3.463-3.34 3.333-3.006z" fill="#222220"/><path d="M81.418 10.187c-2.817 0-4.498 1.47-4.498 3.366 0 1.897 1.696 3.367 4.483 3.367 2.788 0 4.469-1.47 4.469-3.367s-1.638-3.366-4.454-3.366zm-.015 5.183c-1.393 0-2.284-.775-2.284-1.817 0-1.042.905-1.803 2.284-1.803 1.38 0 2.285.761 2.285 1.803 0 1.042-.891 1.817-2.285 1.817zm11.334-4.729V10h-2.084v.641c-2.615.054-4.181 1.082-4.181 2.9 0 1.816 1.566 2.764 4.181 2.818V17h2.084v-.641c2.629-.054 4.195-1.002 4.195-2.819s-1.563-2.845-4.195-2.899zm-2.084 4.355c-1.437-.053-2.07-.6-2.07-1.456 0-.855.633-1.47 2.07-1.523v2.98zm2.084 0v-2.979c1.451.054 2.069.668 2.069 1.523h.003c0 .855-.617 1.403-2.072 1.456zm11.067-4.355V10h-2.083v.641c-2.615.054-4.182 1.082-4.182 2.9 0 1.816 1.567 2.764 4.182 2.818V17h2.083v-.641c2.63-.054 4.196-1.002 4.196-2.819s-1.566-2.845-4.196-2.899zm-2.083 4.355c-1.437-.053-2.07-.6-2.07-1.456 0-.855.633-1.47 2.07-1.523v2.98zm4.149-1.456c0 .855-.614 1.403-2.066 1.456v-2.979c1.452.054 2.069.668 2.069 1.523h-.003z" fill="#222220"/><path d="M28.617 11.701L29 10.539l-1.246.038a2.978 2.978 0 01-1.618-.546h.168a2.018 2.018 0 001.79-1.08l.548-1.13c-.43.003-.86-.021-1.285-.073a2.022 2.022 0 01-1.05-.613 2.009 2.009 0 00-2.058-.508 2.52 2.52 0 00.072-.284 2.505 2.505 0 00-.545-1.892l-.945-1.124-.58 1.315a1.201 1.201 0 01-.412.467c-.1-.47-.336-.9-.687-1.239a3.139 3.139 0 00-2.234-.899c-.147 0-.293.01-.437.031l-1.131.215c.097-.367.25-.716.458-1.038l.623-.937-1.568.142-.501-1.038-.967.508L14.5 0l-.895.854-.967-.484-.501 1.014-1.568-.173.623.94c.207.322.361.671.458 1.038l-1.074-.204h-.036c-.15-.02-.3-.031-.45-.031a3.139 3.139 0 00-2.235.9 2.414 2.414 0 00-.695 1.255 1.193 1.193 0 01-.404-.453L6.172 3.33 5.22 4.458a2.531 2.531 0 00-.533 1.885c.017.097.043.19.071.284a2.009 2.009 0 00-2.059.508 2.037 2.037 0 01-1.038.613c-.43.062-.866.086-1.303.072l.533 1.15a2.018 2.018 0 001.79 1.079h.169a2.987 2.987 0 01-1.597.543L0 10.539.383 11.7c.287.91 1.1 1.577 2.077 1.698a1.93 1.93 0 01-1.074 1.418l-.96.377.516.869c.426.64 1.16 1.02 1.944 1.013.204 0 .408-.02.608-.062.05.21.115.422.186.626.18.456.19.954.036 1.418l-.465.944 1.042.266c.232.06.476.087.716.087.172 0 .34-.017.508-.055.122-.028.244-.063.358-.108.133.232.3.447.49.637.667.66 1.612.996 2.811.996h.856l-1.765.709 1.339.64c.54.256 1.092.488 1.654.692l-.161.45.462.203c.766.29 1.579.453 2.402.481h1.1a7.427 7.427 0 002.39-.484l.448-.2-.157-.45a18.55 18.55 0 001.672-.716l1.314-.616-1.762-.692h.86c1.199 0 2.148-.346 2.81-.996.193-.19.358-.405.49-.636a2.458 2.458 0 00.867.162c.24 0 .483-.031.716-.086l1.045-.267-.454-.926a2.051 2.051 0 01.018-1.453c.075-.211.136-.426.186-.64.2.041.408.062.612.062a2.292 2.292 0 001.948-1.038l.508-.857-.945-.374a1.93 1.93 0 01-1.074-1.418c.977-.124 1.79-.789 2.076-1.702l-.014.028z" fill="#fff"/><path d="M18.803 15.374h-8.592v3.113c0 1.28.956 2.075 2.37 2.075 1.181 0 1.493.045 1.93.467.276-.287.666-.45 1.074-.442v-.049l.272-.81-.462-.487c-.186.056-.38.076-.573.066a4.767 4.767 0 01-.859-.087h-.09c-.039 0-.039 0-.05.021l-.15.242-.186-.041-.827-.187-.115.18v.02l.1.108-.043.138c-.075.17-.182.322-.318.453l-.208.215-.19-.229-.14-.17a.674.674 0 01-.1-.663l-.232.093-.104-.221-.057-.156a.744.744 0 01.261-.916l.666-.346.634.12c0-.058.04-.269.057-.32h-.036l-.358.13-.358-.235a.176.176 0 010-.255l.34-.499-.862-1.037 1.292.49.268-.31.205.186c.053.052.09.115.107.187.358.139 1.02.543 1.074 1.2l-.204.08a.238.238 0 00.097.08l.945.09.086-.025a1.57 1.57 0 01.505-.093c.171 0 .34.038.494.11a.76.76 0 01.214-.041h.047c.505 0 .759.367.96.657l.103.145c.176.243.409.595.42.61l.103.155-.129.145a.632.632 0 01-.501.239 1.408 1.408 0 01-.172 0 .825.825 0 01-.15-.045c0 .048 0 .107-.029.155l-.147.817c.974-.19 1.662-1.035 1.622-1.996l-.003-3.127zm-8.603-.252h6.692a1.015 1.015 0 01-.244-1.038 1.17 1.17 0 01-.25-.159c-.262.187-1.075.747-1.268.889l-.043.028-2.628-.45h-.053a3.257 3.257 0 01-.258 0 .25.25 0 01-.247.194h-.043a.256.256 0 01-.215-.287v-.056a.993.993 0 01-.412-1.037v-.045l.04-.028s.05-.035.118-.073l-.19-.027c-.072-.014-.118-.076-.107-.146a.126.126 0 01.146-.103h.004l.455.069.043-1.546.676-.692.423.858-.444 1.487.4.062a.128.128 0 01.108.146.126.126 0 01-.129.103h-.021l-.326-.052v.025c.036.062.09.11.158.141l2.001.032.512-.488a1.044 1.044 0 01-.716-.861 1.033 1.033 0 01-.57-.505 1.002 1.002 0 01-.046-.692 2.365 2.365 0 01-.834-.54H9.96c.143.34.226.699.24 1.062v3.729z" fill="#FCE527"/><path d="M24.237 8.406c.4.223.747.527 1.019.89.203.308.493.552.836.699.129.042.268.063.404.063.546 0 1.047-.304 1.297-.78L28 8.826l-.504-.028a2.426 2.426 0 01-1.393-.779 1.45 1.45 0 00-1.04-.45 1.66 1.66 0 00-.861.254l-.465.318.5.266zm.837-.5l-.011.004c.303 0 .59.129.793.349.418.468.99.779 1.619.88a1.123 1.123 0 01-.98.577c-.1 0-.2-.018-.296-.05-.579-.191-.783-1.047-1.787-1.564.197-.126.426-.192.662-.196zm-.6 5.002l-.008-.007c-.293-2.305-2.005-3.971-3.91-4.98a9.333 9.333 0 00-.496-.245 2.794 2.794 0 002.237-.514s-1.104.793-3.363.074c.626.398 1.84.957 2.952 1.865 2.773 2.382.79 4.708.79 4.708a2.808 2.808 0 00.747-2.997c.586.954.868 2.058.807 3.168-.079 1.83-1.118 3.43-2.19 4.705a3.11 3.11 0 00-.636 1.377c.182-.5.457-.961.814-1.36 1.162-1.33 2.144-2.71 2.284-4.697.121.35.614 1.365 1.4 1.746 0 0-.986-.58-1.429-2.843zM9.68 21.428a2.695 2.695 0 01-.268-1.143 2.697 2.697 0 00-.844-1.914 1.458 1.458 0 00.829-1.32l-.021-.311h-.322a2.422 2.422 0 01-2.212-1.195c.318.095.647.14.98.14h.325c.39-.039.757-.192 1.054-.44l.332-.297-.379-.238c-.85-.53-1.718-1.537-1.05-3.304.432-1.15 1.43-2.186 3.055-3.185.547-.35.847-.737.847-1.118 0-.587-.504-.82-.872-.985a1.538 1.538 0 01-.457-.27c-.286-.324-.047-.942.221-1.277l.357-.437-.55-.105a2.318 2.318 0 00-.382-.028 2.563 2.563 0 00-1.862.72 1.877 1.877 0 00-.575 1.484H7.67c-.804 0-1.182-.831-1.197-.866l-.225-.52-.357.436a2.05 2.05 0 00-.425 1.495c.121.59.496 1.1 1.032 1.397.05.032.1.067.143.105-1.129.35-1.761 1.146-2.426 1.973l-.096.12a3.524 3.524 0 01-2.63 1.302H1l.15.458c0 .056.45 1.351 1.755 1.351h.064c.121-.003.24-.017.357-.041-.053.698-.318 2.011-1.518 2.497l-.358.147.197.349a1.73 1.73 0 001.468.765 2.27 2.27 0 001.037-.238c.05.405.143.804.275 1.188.225.59.225 1.243 0 1.834l-.179.37.407.105c.186.042.38.066.572.066a1.703 1.703 0 001.097-.391c.125.391.34.75.63 1.048.56.562 1.364.841 2.411.845h.636l-.321-.573zm-.308.195c-2.89 0-2.819-2.424-2.819-2.424a1.397 1.397 0 01-1.308.94c-.164 0-.325-.022-.482-.06.26-.674.26-1.422 0-2.096a4.85 4.85 0 01-.29-1.746 1.634 1.634 0 01-1.354.58h-.018c-.464.007-.9-.22-1.154-.598 1.926-.782 1.737-3.308 1.737-3.308a1.406 1.406 0 01-.74.2h-.04C1.834 13.11 1.476 12 1.476 12h.022a3.87 3.87 0 002.892-1.43c.736-.911 1.337-1.715 2.526-2.03l.118-.02.025-.115c.033-.178-.093-.35-.357-.524-1.64-1.048-.525-2.39-.525-2.39s.464 1.073 1.518 1.073h.05c.122-.004.24-.014.358-.035l.193-.038c-.165-.545 0-1.136.421-1.527a2.2 2.2 0 011.587-.646c.104 0 .21.007.314.024-.357.465-.621 1.233-.203 1.705.357.409 1.243.426 1.243 1.048 0 .258-.246.559-.686.828-1.33.817-2.648 1.903-3.194 3.356-.683 1.813.089 3.018 1.19 3.706a1.6 1.6 0 01-.847.35h-.297a2.531 2.531 0 01-1.604-.486c.093.479.31.926.636 1.292a2.78 2.78 0 002.194.926 1.14 1.14 0 01-.418.86 2.216 2.216 0 01-.954.349s1.247.248 1.382 2.046c-.003.458.111.909.33 1.314l-.019-.014z" fill="#222220"/><path d="M3.437 9.967h.004c.13 0 .264-.021.387-.063.33-.147.608-.393.803-.701.257-.364.59-.67.974-.894l.48-.262-.445-.32a1.543 1.543 0 00-.824-.255c-.38.003-.74.168-.998.455a2.315 2.315 0 01-1.334.782L2 8.733l.196.456a1.4 1.4 0 001.241.778zm.618-1.801c.192-.221.466-.35.758-.35.223.003.443.073.631.196-.97.529-1.173 1.377-1.715 1.57a.849.849 0 01-.281.049c-.398 0-.762-.225-.947-.582a2.615 2.615 0 001.554-.883zm1.568 5.754a5.662 5.662 0 01.775-3.179 2.904 2.904 0 00.717 3.007s-1.907-2.334.758-4.724c1.067-.91 2.23-1.472 2.83-1.871-2.168.722-3.228-.074-3.228-.074.607.484 1.39.673 2.144.515-.15.074-.309.155-.477.246-1.828 1.016-3.482 2.688-3.753 5v-.017c-.425 2.27-1.372 2.853-1.372 2.853.751-.379 1.228-1.402 1.342-1.753.126 1.998 1.08 3.382 2.195 4.714.34.4.607.862.782 1.363a3.17 3.17 0 00-.617-1.374c-1.03-1.279-2.024-2.884-2.096-4.706zm8.5-4.22a.55.55 0 01.457-.154v.663a1.007 1.007 0 01-.124.466h.649a1.004 1.004 0 01-.124-.466v-.663a.546.546 0 01.453.155v-.46h-1.31v.46zm-.27-3.178h-.007c.1.088.216.158.343.2l.082.038v-.434L13.509 6a.771.771 0 00.343.522zm1.807-.003l-.003.003A.772.772 0 0016 6l-.762.326v.43l.08-.038a.998.998 0 00.342-.2z" fill="#222220"/><path d="M17.238 4.265c0-.666-1.07-1.265-2.248-1.265-1.179 0-2.249.599-2.249 1.265l.024.164.472 2.85-.472.288-1.233.734s-.275.15-.404.239c-.466.356-.564.834-.296 1.04.068-.484.472-.84.941-.826.39.01.754.217.975.556.068.085.129.178.183.27.072.121.143.228.214.332H10c.265.477.418 1.015.452 1.567v7.329c0 1.781 1.3 2.618 2.717 2.618 1.087 0 1.233-.053 1.831.574.598-.627.744-.574 1.83-.574 1.407 0 2.718-.844 2.718-2.618v-7.322A3.7 3.7 0 0120 9.92h-3.18c.072-.104.143-.21.215-.332a3.65 3.65 0 01.183-.27c.224-.339.588-.545.978-.556.47-.014.873.342.941.826.272-.203.173-.712-.295-1.04a4.459 4.459 0 00-.401-.239l-1.223-.755-.472-.288.472-2.85.02-.15zm-4.042.328l1.658.587v2.73l-1.22-.678-.438-2.64zm-2.517 5.8h2.857c.22.242.492.434.792.555a1.11 1.11 0 00.044.713c.108.239.302.424.54.52.044.41.309.752.679.887-.204.218-.404.42-.486.503l-1.898-.032a.337.337 0 01-.15-.147v-.024l.31.053h.02a.123.123 0 00.122-.107.131.131 0 00-.102-.15l-.38-.064.42-1.532-.4-.883-.642.712-.04 1.593-.432-.071c-.068-.015-.13.032-.143.103v.003a.131.131 0 00.102.15l.18.029a.703.703 0 00-.112.074l-.037.029v.046c-.085.406.07.827.39 1.07v.056c-.02.139.071.27.204.296h.04a.243.243 0 00.235-.2c.082.004.16.004.241 0h.051l2.49.474.04-.028a52.32 52.32 0 001.203-.916c.072.064.153.121.238.164a1.11 1.11 0 00.231 1.069h-6.379v-3.852a3.357 3.357 0 00-.228-1.093zm5.924 3.523c-.258.2-.893.684-1.124.855l-2.259-.413v-.064c.037-.16.058-.324.061-.488l1.902.032.038-.04c.03-.031.632-.64.937-.993.082.107.177.196.286.267-.055.292.003.595.16.844zm-3.774-.427v.01a.61.61 0 00.218.243 3.03 3.03 0 01-.04.43c0 .033 0 .065-.025.097v.05c-.156 0-.309-.025-.458-.075a.78.78 0 01-.38-.787.916.916 0 01.407-.168.284.284 0 01.278.2zm-.234-.474l.037-1.507.34-.356.207.452-.404 1.468-.18-.057zm3.991 7.938h-.326l.255-.873c.04-.121-.17-.278-.258-.417.207.132.421.25.642.356 0 .029-.313.934-.313.934zm.873-.977l-.027-.024-.177.961c-.112 0-.23.025-.34.032l.188-.926c.054-.274-.65-.356-.996-.901-.227.2-.52.292-.811.26a3.924 3.924 0 01-.765-.086.792.792 0 00-.132 0 .281.281 0 00-.262.146l-.05.09-.969-.246-.23.42a.151.151 0 00.016.185l.065.075a1.419 1.419 0 01-.245.356l-.143-.185a.56.56 0 01.024-.598l.38-.674.813.128-.126-.302c-.17-.4.088-.909.115-1.201 0 .09-.088.107-.176.107h-.235a.142.142 0 00-.054 0l-.22.139-.174-.168a.134.134 0 01.024-.156l.4-.474-.475-.58.68.355.203-.256c.055.057.03.207.03.207.493.128.836.598.823 1.132v.104a.493.493 0 00.299.224l.92.096c.184-.06.37-.1.56-.124.164 0 .327.053.463.146a.417.417 0 01.22-.079h.031c.411 0 .584.392.805.713.166.246.39.616.39.616a.34.34 0 01-.285.16.656.656 0 01-.119 0c-.441-.085-.506-1.04-.757-1.114h-.04a.131.131 0 00-.116.074c.115.325.047.456.173.713.092.153.207.292.34.41 0 0-.017.142-.038.245zm-4.949-.933h-.007l.041.11c-.027.097-.34.236-.34.236l-.068-.157a.543.543 0 01.164-.627l.512-.328.547.121a.526.526 0 00.095.317l-.574-.114-.34.25a.158.158 0 00-.03.192zm6.57-.232c.037.99-.619 1.86-1.546 2.052l.156-.862c0-.05.017-.11.024-.16a.74.74 0 00.143.046c.054.004.108.004.163 0a.584.584 0 00.475-.245l.122-.15-.101-.146s-.228-.378-.398-.627l-.095-.15c-.19-.3-.431-.677-.91-.677h-.044a.675.675 0 00-.204.043 1.026 1.026 0 00-.469-.114 1.388 1.388 0 00-.479.096l-.081.025-.897-.093a.23.23 0 01-.092-.082l.194-.081c-.055-.68-.68-1.098-1.02-1.237a.403.403 0 00-.101-.192l-.194-.193-.17.214-.084.107-1.257-.541.818 1.069-.322.512a.193.193 0 000 .264l.34.242.339-.135h.034c0 .053-.037.27-.054.331l-.591-.107-.632.357a.807.807 0 00-.241.969l.07.16.1.228.22-.096a.743.743 0 00.095.684l.133.178.176.235.197-.22c.13-.136.231-.293.303-.467l.04-.143-.095-.11v-.022l.11-.185.784.192.176.043.095-.164.051-.089c0-.018 0-.021.048-.021h.085c.268.057.54.085.812.089.183.01.367-.01.543-.068l.435.52-.258.834v.05a1.329 1.329 0 00-1.02.456c-.417-.435-.713-.481-1.83-.481-1.342 0-2.249-.823-2.249-2.138v-3.206h8.152v3.206zm.22-8.418a3.223 3.223 0 00-.227 1.093v2.402a.706.706 0 01-.537-.649v-.11h-.102a.711.711 0 01-.462-.232 1.04 1.04 0 01-.234-.648.744.744 0 00.037.805.817.817 0 00.537.32.918.918 0 00.77.788v1.176h-1.426a.846.846 0 01-.363-1.07l.054-.127-.126-.05c-.407-.15-.631-.61-.502-1.044l.027-.107-.095-.046a1.083 1.083 0 01-.496-1.07.68.68 0 00-.116.753 7.864 7.864 0 01-.254.285.822.822 0 01-.629-.784v-.09l-.078-.031a.795.795 0 01-.475-.414.851.851 0 01-.034-.52c.067.014.135.025.203.032.068.004.14.004.208 0 .55 0 1.073-.25 1.44-.677l2.88.015zm-2.2-2.43l.556.356.14.086c-.29.082-.55.245-.758.473l-.024.022a3.025 3.025 0 00-.136.164l-.027.035a1.645 1.645 0 00-.122.182l-.02.032c-.048.071-.092.15-.136.228a2.007 2.007 0 01-1.593 1.147 2.007 2.007 0 01-1.594-1.147c-.044-.078-.088-.153-.132-.228l-.027-.04-.109-.184-.03-.04a3.215 3.215 0 00-.133-.16l-.024-.025a1.623 1.623 0 00-.757-.474l.143-.085.56-.356.574-.357 1.532.873 1.532-.844.584.342zm-.755-.713l-1.22.674v-2.74l1.655-.588-.435 2.654zm-1.359-2.355l-1.813-.762c.152-.385.866-.713 1.813-.713.948 0 1.661.328 1.814.713l-1.814.762z" fill="#222220"/><path d="M13.178 17.846a.084.084 0 00-.083.077v.004a.087.087 0 00.076.094h.004c.048 0 .083-.04.083-.087 0-.051-.035-.088-.08-.088zm-.003-.003c.003 0 .003.003.003.003.004 0 .004-.003.007-.003h-.01zm5.669 5.976l-.479-.193.132-.521.146-.569c-.656.354-1.343.638-2.05.85a7.36 7.36 0 01-.598.149v.368a8.061 8.061 0 01-1.29.116h-.039a8.061 8.061 0 01-1.29-.116v-.365s-.253-.05-.6-.153a10.885 10.885 0 01-2.05-.849l.141.569.136.52-.483.194-.52.208c.715.39 1.46.714 2.23.969l-.183.525a6.632 6.632 0 002.627.477h.02a6.633 6.633 0 002.627-.477l-.18-.525a13.65 13.65 0 002.227-.97l-.524-.207zm-8.265.24l.778-.273-.233-.802c.51.266 1.037.489 1.582.664l-.381 1.093a9.468 9.468 0 01-1.746-.682zm4.126 1.68l-.018-.014a8.322 8.322 0 01-2.258-.325l.468-1.333a7.207 7.207 0 001.787.24h.038a7.385 7.385 0 001.787-.24l.468 1.333a8.295 8.295 0 01-2.272.34zm2.366-.976v-.011l-.382-1.093a10.078 10.078 0 001.582-.664l-.232.802.787.277a9.345 9.345 0 01-1.755.689zM14.684 3.019a3.497 3.497 0 012.193.703c.1-.54.291-1.057.565-1.527l-.788.095-.409-.922-.794.43L14.684 1l-.767.798-.794-.43-.41.922-.787-.095c.274.47.464.988.565 1.527a3.497 3.497 0 012.193-.703zm-2.006-.408l.219.025.094-.208.274-.619.51.277.198.106.16-.153.55-.587.553.587.16.164.197-.106.506-.277.278.62.094.207.218-.025.208-.026a5.4 5.4 0 00-.215.62 4.196 4.196 0 00-3.993 0 5.387 5.387 0 00-.215-.62l.204.015zm12.297 7.929l-.094-.12c-.646-.864-1.26-1.684-2.356-2.06.045-.04.09-.076.139-.108.52-.31.888-.842 1.006-1.458a2.24 2.24 0 00-.416-1.56l-.347-.455-.219.543c0 .033-.385.904-1.162.904h-.23a2.04 2.04 0 00-.54-1.546 2.42 2.42 0 00-2.155-.75l-.53.11.329.455c.257.364.489.994.215 1.333-.132.12-.281.215-.444.28-.347.172-.847.416-.847 1.029 0 .397.295.812.826 1.166 1.565 1.042 2.533 2.117 2.953 3.327.648 1.843-.198 2.893-1.02 3.447l-.368.248.322.31a1.82 1.82 0 001.02.459h.316c.323 0 .642-.048.95-.146a2.55 2.55 0 01-.27.4 2.268 2.268 0 01-1.88.846h-.31l-.023.324c-.004.456.187.886.517 1.181.086.08.183.146.288.197a2.91 2.91 0 00-.816 1.997c0 .412-.09.82-.26 1.191l-.347.547h.618c1.02 0 1.8-.295 2.341-.882.282-.31.49-.685.611-1.093a1.612 1.612 0 001.065.408c.188 0 .375-.026.556-.07l.395-.108-.174-.387a2.872 2.872 0 010-1.913c.129-.4.22-.816.268-1.239.312.168.659.252 1.01.248a1.65 1.65 0 001.425-.798l.191-.364-.347-.154c-1.162-.506-1.419-1.869-1.47-2.605.114.025.228.04.346.044l.097.069c1.263 0 1.686-1.352 1.704-1.41l.142-.478h-.475a3.337 3.337 0 01-2.55-1.359zm1.183 2.879h-.049a1.295 1.295 0 01-.718-.208s-.184 2.635 1.686 3.451v.011c-.246.394-.67.627-1.117.62a1.538 1.538 0 01-1.315-.605 5.41 5.41 0 01-.285 1.822 3.24 3.24 0 000 2.186c-.156.04-.312.062-.471.062-.098 0-.198-.011-.292-.037a1.396 1.396 0 01-.978-.943s.073 2.529-2.734 2.529h-.021c.212-.423.323-.893.32-1.37.12-1.87 1.328-2.136 1.328-2.136a2.059 2.059 0 01-.926-.364 1.223 1.223 0 01-.406-.897 2.596 2.596 0 002.126-.965c.32-.383.531-.85.621-1.349a2.34 2.34 0 01-1.557.507h-.285a1.47 1.47 0 01-.822-.365c1.068-.728 1.818-1.975 1.155-3.866-.534-1.516-1.814-2.65-3.101-3.502-.427-.277-.684-.59-.684-.86 0-.634.857-.652 1.21-1.093.407-.496.154-1.297-.2-1.778a2.06 2.06 0 011.846.649c.409.407.565 1.023.409 1.592l.187.04c.115.022.23.033.347.036h.076c1.017 0 1.475-1.118 1.475-1.118s1.082 1.399-.51 2.492c-.274.186-.395.364-.347.547l.024.12.115.022c1.155.328 1.735 1.166 2.453 2.117a3.68 3.68 0 002.807 1.494h.02s-.347 1.159-1.387 1.159z" fill="#222220"/></svg>