<svg width="89" height="27" fill="none" xmlns="http://www.w3.org/2000/svg"><path d="M0 8.857V27h9l9-9.071H9V0L0 8.857z" fill="#2C2F86"/><path d="M27 18.143V0h-9L9 9.071h9V27l9-8.857z" fill="#E95616"/><path d="M41.676 22.5H37V4.643h16.436V22.5h-4.534V8.571h-7.226V22.5zm27.346-12.071L71.926 7.5C71.1 6.333 68.54 4 64.913 4c-4.534 0-9.564 3.071-9.564 9.5s5.03 9.5 9.564 9.5c3.627 0 6.329-2.571 7.226-3.857l-2.834-2.929c-.52.81-2.125 2.429-4.392 2.429-2.834 0-4.818-2.072-4.818-5.143 0-3.071 2.197-5.143 4.818-5.143 2.097 0 3.613 1.381 4.109 2.072zM87.37 4.643H73.84v10.5h8.678c.958 0 1.735.783 1.735 1.75 0 .966-.777 1.75-1.735 1.75h-8.679V22.5h9.564c3.091 0 5.597-2.526 5.597-5.643 0-3.116-2.506-5.643-5.597-5.643h-4.888V8.643h8.856v-4z" fill="#2C2F86"/><path d="M73.84 15.071h4.675v3.572h-4.676V15.07z" fill="#2C2F86"/></svg>