<svg width="64" height="65" fill="none" xmlns="http://www.w3.org/2000/svg"><path d="M44.571 13.364c-2.836 0-4.571 1.11-4.571 1.714 0 .604 1.736 1.714 4.571 1.714 2.836 0 4.572-1.11 4.572-1.714 0-.604-1.736-1.714-4.572-1.714zm-24 12.571c-2.836 0-4.571 1.11-4.571 1.714 0 .605 1.735 1.715 4.571 1.715 2.836 0 4.572-1.11 4.572-1.715 0-.604-1.736-1.714-4.572-1.714zm12-6.285c-2.836 0-4.571 1.11-4.571 1.714 0 .604 1.735 1.714 4.571 1.714 2.836 0 4.572-1.11 4.572-1.714 0-.605-1.736-1.714-4.572-1.714zM24 39.205v20.287l40-20.54V18.663l-40 20.54z" fill="#20BA72"/><path d="M41.139 5.508l-39.8 20.437L22.864 37.22 62.66 16.782 41.138 5.508zM20.572 31.65c-3.909 0-6.857-1.72-6.857-4 0-2.28 2.948-4 6.857-4 3.909 0 6.857 1.72 6.857 4 0 2.28-2.948 4-6.857 4zm12-6.286c-3.909 0-6.857-1.72-6.857-4 0-2.28 2.948-4 6.857-4 3.909 0 6.857 1.72 6.857 4 0 2.28-2.948 4-6.857 4zm12-6.286c-3.909 0-6.857-1.72-6.857-4 0-2.28 2.948-4 6.857-4 3.909 0 6.857 1.72 6.857 4 0 2.28-2.948 4-6.857 4zM0 48.1l21.714 11.375V39.198L0 27.824v20.277z" fill="#20BA72"/></svg>