<svg width="49" height="48" fill="none" xmlns="http://www.w3.org/2000/svg"><path fill-rule="evenodd" clip-rule="evenodd" d="M33.488 5.537l.002 1.5c5.51.431 9.149 4.185 9.155 9.943l.021 16.851c.008 6.277-3.935 10.139-10.256 10.149L16.97 44c-6.281.008-10.274-3.946-10.282-10.24l-.021-16.655C6.659 11.31 10.17 7.566 15.679 7.06l-.002-1.499c-.002-.88.65-1.541 1.518-1.541.87-.002 1.52.658 1.523 1.537l.002 1.4 11.73-.016-.003-1.4c-.002-.88.65-1.539 1.519-1.541.849-.002 1.52.658 1.522 1.537zM9.71 17.723l29.897-.04v-.7c-.085-4.297-2.242-6.552-6.112-6.888l.002 1.54c0 .859-.67 1.54-1.518 1.54-.87.002-1.523-.677-1.523-1.537l-.002-1.619-11.73.016.003 1.617c0 .862-.65 1.541-1.519 1.541-.869.002-1.522-.675-1.522-1.537l-.002-1.54c-3.85.387-5.981 2.65-5.976 6.985l.002.622zm21.437 9.086v.022c.02.92.77 1.617 1.68 1.597.89-.022 1.598-.784 1.578-1.703-.041-.88-.754-1.598-1.64-1.596-.909.02-1.62.76-1.618 1.68zm1.631 8.975c-.908-.02-1.64-.777-1.643-1.697a1.666 1.666 0 011.618-1.703h.02c.928 0 1.68.757 1.68 1.697a1.689 1.689 0 01-1.675 1.703zm-9.766-8.943c.04.92.792 1.637 1.7 1.597a1.646 1.646 0 001.558-1.721c-.022-.9-.752-1.6-1.641-1.598-.908.04-1.62.802-1.617 1.722zm1.708 8.853c-.909.04-1.659-.678-1.7-1.597 0-.92.709-1.68 1.617-1.721a1.63 1.63 0 011.64 1.595 1.645 1.645 0 01-1.557 1.723zm-9.844-8.784c.04.92.792 1.64 1.7 1.598a1.642 1.642 0 001.556-1.721c-.02-.9-.75-1.6-1.64-1.598-.909.04-1.618.802-1.616 1.721zm1.708 8.794c-.908.042-1.658-.678-1.7-1.597-.002-.92.709-1.681 1.617-1.721a1.63 1.63 0 011.641 1.597 1.642 1.642 0 01-1.558 1.721z" fill="url(#paint0_linear_409_3780)"/><defs><linearGradient id="paint0_linear_409_3780" x1="24.666" y1="4" x2="24.666" y2="44" gradientUnits="userSpaceOnUse"><stop stop-color="#20BA72"/><stop offset="1" stop-color="#20BA95"/></linearGradient></defs></svg>