<svg width="36" height="36" fill="none" xmlns="http://www.w3.org/2000/svg"><path d="M8.438 19.563a3.656 3.656 0 100 7.311 3.656 3.656 0 000-7.311zm0 5.343a1.688 1.688 0 110-3.375 1.688 1.688 0 010 3.375zm20.25-5.343a3.656 3.656 0 100 7.312 3.656 3.656 0 000-7.313zm0 5.343a1.687 1.687 0 110-3.375 1.687 1.687 0 010 3.375z" fill="#20BA72"/><path d="M33.567 16.542L27 15.344l-5.59-4.64A3.101 3.101 0 0019.442 10h-8.237a3.078 3.078 0 00-2.415 1.161l-3.572 4.183H2.812a2.534 2.534 0 00-2.53 2.531v3.094a3.097 3.097 0 003.093 3.093h.643a4.5 4.5 0 118.839 0h11.411a4.5 4.5 0 118.839 0h.08a2.534 2.534 0 002.532-2.53v-2.488a2.517 2.517 0 00-2.152-2.502zM12.657 14.5a.843.843 0 01-.845.844H8.104a.422.422 0 01-.32-.696l2.454-2.876a.843.843 0 01.642-.295h.934a.844.844 0 01.843.843v2.18zm4.218 3.938H15.75a.844.844 0 110-1.688h1.125a.844.844 0 110 1.688zm6.643-3.074l-8.051-.018a.844.844 0 01-.842-.844V12.32a.844.844 0 01.844-.843h4.046a.84.84 0 01.523.181l3.742 2.953a.422.422 0 01-.262.753z" fill="#20BA72"/></svg>