<svg width="48" height="48" fill="none" xmlns="http://www.w3.org/2000/svg"><path d="M24 32c1.146 0 2.757-3.098 2.96-8h-5.92c.203 4.902 1.814 8 2.96 8z" fill="url(#paint0_linear_409_3768)"/><path d="M15.101 22h3.92c.11-2.724.673-5.433 1.65-7.345A8.98 8.98 0 0015.1 22z" fill="url(#paint1_linear_409_3768)"/><path d="M27.33 14.655c.976 1.912 1.539 4.62 1.65 7.345h3.919a8.98 8.98 0 00-5.57-7.345z" fill="url(#paint2_linear_409_3768)"/><path d="M24 14c-1.146 0-2.757 3.098-2.96 8h5.92c-.203-4.902-1.814-8-2.96-8z" fill="url(#paint3_linear_409_3768)"/><path d="M15.101 24a8.98 8.98 0 005.57 7.345c-.977-1.912-1.54-4.621-1.65-7.345H15.1z" fill="url(#paint4_linear_409_3768)"/><path d="M38 6h-2V3.931c0-2.497-2.355-4.45-4.894-3.808l-21.334 5.9C7.674 6.144 6 7.872 6 10v34c0 2.206 1.794 4 4 4h28c2.206 0 4-1.794 4-4V10c0-2.206-1.794-4-4-4zm-6.38-3.944C32.787 1.758 34 2.703 34 3.93V6H17.36l14.26-3.944zM29 42H18a1 1 0 110-2h11a1 1 0 110 2zm4-4H14a1 1 0 110-2h19a1 1 0 110 2zm-9-4c-6.066 0-11-4.935-11-11 0-6.066 4.934-11 11-11 6.065 0 11 4.934 11 11 0 6.065-4.935 11-11 11z" fill="url(#paint5_linear_409_3768)"/><path d="M27.33 31.345A8.98 8.98 0 0032.899 24h-3.92c-.11 2.724-.673 5.433-1.65 7.345z" fill="url(#paint6_linear_409_3768)"/><defs><linearGradient id="paint0_linear_409_3768" x1="24" y1="0" x2="24" y2="48" gradientUnits="userSpaceOnUse"><stop stop-color="#20BA72"/><stop offset="1" stop-color="#20BA95"/></linearGradient><linearGradient id="paint1_linear_409_3768" x1="24" y1="0" x2="24" y2="48" gradientUnits="userSpaceOnUse"><stop stop-color="#20BA72"/><stop offset="1" stop-color="#20BA95"/></linearGradient><linearGradient id="paint2_linear_409_3768" x1="24" y1="0" x2="24" y2="48" gradientUnits="userSpaceOnUse"><stop stop-color="#20BA72"/><stop offset="1" stop-color="#20BA95"/></linearGradient><linearGradient id="paint3_linear_409_3768" x1="24" y1="0" x2="24" y2="48" gradientUnits="userSpaceOnUse"><stop stop-color="#20BA72"/><stop offset="1" stop-color="#20BA95"/></linearGradient><linearGradient id="paint4_linear_409_3768" x1="24" y1="0" x2="24" y2="48" gradientUnits="userSpaceOnUse"><stop stop-color="#20BA72"/><stop offset="1" stop-color="#20BA95"/></linearGradient><linearGradient id="paint5_linear_409_3768" x1="24" y1="0" x2="24" y2="48" gradientUnits="userSpaceOnUse"><stop stop-color="#20BA72"/><stop offset="1" stop-color="#20BA95"/></linearGradient><linearGradient id="paint6_linear_409_3768" x1="24" y1="0" x2="24" y2="48" gradientUnits="userSpaceOnUse"><stop stop-color="#20BA72"/><stop offset="1" stop-color="#20BA95"/></linearGradient></defs></svg>