<svg width="64" height="65" fill="none" xmlns="http://www.w3.org/2000/svg"><path d="M62.667 11.167H48V9.833c0-.354-.14-.692-.39-.942l-2.667-2.667c-.25-.25-.589-.39-.943-.39h-5.018L33.93 3.306l-.006.012a1.304 1.304 0 00-.59-.152h-28A5.338 5.338 0 000 8.5v8a5.339 5.339 0 005.333 5.333h5.04l-3.6 18.01-2.544 2.542a5.367 5.367 0 00-1.562 3.771V56.5A5.339 5.339 0 008 61.833h16a5.339 5.339 0 005.333-5.333v-9.527a5.305 5.305 0 00-2.947-4.771l-4.938-2.469 1.142-8.566H24c.659 0 1.219-.482 1.318-1.133l.815-5.365a1.333 1.333 0 00-1.318-1.534H23.66l.174-1.302h9.5c.214 0 .41-.062.59-.152l.006.011 5.052-2.526H44c.354 0 .693-.14.943-.39l2.666-2.667c.25-.25.391-.588.391-.943v-1.333h14.667a1.333 1.333 0 100-2.666zm-48 5.333h-8a1.333 1.333 0 110-2.667h8a1.333 1.333 0 110 2.667zm0-5.333h-8a1.333 1.333 0 110-2.667h8a1.333 1.333 0 110 2.667z" fill="url(#paint0_linear_340_2661)"/><defs><linearGradient id="paint0_linear_340_2661" x1="32" y1="3.167" x2="32" y2="61.833" gradientUnits="userSpaceOnUse"><stop stop-color="#20BA72"/><stop offset="1" stop-color="#20BA95"/></linearGradient></defs></svg>