<svg width="64" height="64" fill="none" xmlns="http://www.w3.org/2000/svg"><g clip-path="url(#clip0_335_1522)"><path d="M38.843 27.272c.512-.973 2.532-2.935 2.532-6.647 0-7.564-7.06-8.987-7.436-9.252l-.113-1.198A11.202 11.202 0 0022.625 0c-5.77 0-10.57 4.376-11.168 10.179l-.122 1.19c-.375.264-7.585 1.662-7.585 9.256 0 3.708 2.021 5.676 2.532 6.647C5.922 27.649 0 30.664 0 37.625 0 43.829 5.171 48.75 11.375 48.75h22.5c6.204 0 11.25-5.046 11.25-11.25 0-7.003-5.855-9.78-6.282-10.228z" fill="url(#paint0_linear_335_1522)"/><path d="M57.718 27.272c.513-.973 2.532-2.935 2.532-6.647 0-7.564-7.185-8.987-7.56-9.252l-.114-1.198A11.202 11.202 0 0041.376 0c-2.532 0-4.85.879-6.735 2.315 1.377 1.856 2.375 4.022 2.778 6.43 6.667 3.166 7.707 8.69 7.707 11.88 0 2.406-.625 4.312-1.324 5.737 3.405 3.076 5.074 6.786 5.074 11.138 0 4.501-2.035 8.498-5.184 11.25h8.934C58.829 48.75 64 43.704 64 37.5c0-7.003-5.856-9.78-6.283-10.228z" fill="url(#paint1_linear_335_1522)"/><path d="M48.875 60.25V52.5h-7.5v7.75h-15V52.5h-7.5v7.75h-7.5V64h45v-3.75h-7.5z" fill="url(#paint2_linear_335_1522)"/></g><defs><linearGradient id="paint0_linear_335_1522" x1="22.563" y1="0" x2="22.563" y2="48.75" gradientUnits="userSpaceOnUse"><stop stop-color="#20BA72"/><stop offset="1" stop-color="#20BA95"/></linearGradient><linearGradient id="paint1_linear_335_1522" x1="49.321" y1="0" x2="49.321" y2="48.75" gradientUnits="userSpaceOnUse"><stop stop-color="#20BA72"/><stop offset="1" stop-color="#20BA95"/></linearGradient><linearGradient id="paint2_linear_335_1522" x1="33.875" y1="52.5" x2="33.875" y2="64" gradientUnits="userSpaceOnUse"><stop stop-color="#20BA72"/><stop offset="1" stop-color="#20BA95"/></linearGradient><clipPath id="clip0_335_1522"><path fill="#fff" d="M0 0h64v64H0z"/></clipPath></defs></svg>