<svg width="64" height="65" fill="none" xmlns="http://www.w3.org/2000/svg"><g clip-path="url(#clip0_340_3080)"><path d="M8.008 49.122l-.6 2.398a2.947 2.947 0 00.54 2.545 2.95 2.95 0 002.34 1.142 2.964 2.964 0 002.878-2.248l.952-3.807h-5.33c-.262 0-.523-.01-.78-.03z" fill="url(#paint0_linear_340_3080)"/><path d="M55.992 49.122c-.257.02-.518.03-.78.03h-5.33l.952 3.807a2.964 2.964 0 002.879 2.248 2.95 2.95 0 002.339-1.142 2.947 2.947 0 00.54-2.545l-.6-2.398z" fill="url(#paint1_linear_340_3080)"/><path d="M5.886 20.92a7.324 7.324 0 016.558 5.844l1.552 7.766c.175.87.945 1.502 1.833 1.502h32.34c.889 0 1.66-.632 1.833-1.502l1.553-7.766a7.328 7.328 0 015.886-5.758l.254-1.417a8.314 8.314 0 00-1.814-6.813 8.31 8.31 0 00-6.388-2.983H13.809a8.297 8.297 0 00-6.48 3.093 8.296 8.296 0 00-1.667 6.984l.224 1.05z" fill="url(#paint2_linear_340_3080)"/><path d="M62.575 24.587a5.303 5.303 0 00-3.859-1.674c-.577 0-1.137.095-1.663.27-1.77.58-3.165 2.145-3.518 3.977l-1.553 7.765a3.898 3.898 0 01-3.812 3.126H15.83a3.898 3.898 0 01-3.812-3.126l-1.553-7.765c-.39-2.045-2.086-3.741-4.128-4.14-1.768-.375-3.683.24-4.912 1.567a5.303 5.303 0 00-1.413 3.961l.703 10.547c.018 4.34 3.481 7.882 7.791 8.031v.003c.093.003.188.005.282.005h46.424c.094 0 .189-.002.282-.005v-.003c4.31-.149 7.773-3.69 7.791-8.031l.704-10.547a5.302 5.302 0 00-1.414-3.961z" fill="url(#paint3_linear_340_3080)"/></g><defs><linearGradient id="paint0_linear_340_3080" x1="10.718" y1="49.122" x2="10.718" y2="55.207" gradientUnits="userSpaceOnUse"><stop stop-color="#20BA72"/><stop offset="1" stop-color="#20BA95"/></linearGradient><linearGradient id="paint1_linear_340_3080" x1="53.282" y1="49.122" x2="53.282" y2="55.207" gradientUnits="userSpaceOnUse"><stop stop-color="#20BA72"/><stop offset="1" stop-color="#20BA95"/></linearGradient><linearGradient id="paint2_linear_340_3080" x1="31.65" y1="9.793" x2="31.65" y2="36.032" gradientUnits="userSpaceOnUse"><stop stop-color="#20BA72"/><stop offset="1" stop-color="#20BA95"/></linearGradient><linearGradient id="paint3_linear_340_3080" x1="32" y1="22.912" x2="32" y2="47.134" gradientUnits="userSpaceOnUse"><stop stop-color="#20BA72"/><stop offset="1" stop-color="#20BA95"/></linearGradient><clipPath id="clip0_340_3080"><path fill="#fff" transform="translate(0 .5)" d="M0 0h64v64H0z"/></clipPath></defs></svg>