<svg width="64" height="65" fill="none" xmlns="http://www.w3.org/2000/svg"><g clip-path="url(#clip0_340_2692)"><path d="M55.742 64.5a2.07 2.07 0 002.064-2.065 2.07 2.07 0 00-2.064-2.064h-4.13V49.305a7.263 7.263 0 00-2.477-5.46l-10.28-8.992A3.06 3.06 0 0137.79 32.5c0-.919.382-1.755 1.063-2.354l10.282-8.99a7.226 7.226 0 002.477-5.461V4.629h4.129a2.07 2.07 0 002.064-2.065A2.07 2.07 0 0055.742.5H8.257a2.07 2.07 0 00-2.064 2.065 2.07 2.07 0 002.065 2.064h4.129v12.078a7.21 7.21 0 002.508 5.48l9.167 7.95a3.101 3.101 0 011.084 2.363c0 .919-.382 1.765-1.084 2.364l-9.167 7.938a7.25 7.25 0 00-2.508 5.492V60.37h-4.13a2.07 2.07 0 00-2.064 2.065A2.07 2.07 0 008.258 64.5h47.484zm-8.258-4.129H16.516V48.293c0-.908.392-1.765 1.074-2.363l9.166-7.938a7.263 7.263 0 002.508-5.482 7.212 7.212 0 00-2.508-5.481l-9.166-7.948a3.165 3.165 0 01-1.074-2.375V4.63h30.968v11.066c0 .898-.393 1.755-1.074 2.353L36.13 27.04a7.262 7.262 0 00-2.48 5.46 7.26 7.26 0 002.478 5.46l10.291 8.992a3.127 3.127 0 011.063 2.353v11.066z" fill="url(#paint0_linear_340_2692)"/><path d="M34.59 38.88c-1.104-.97-2.012-2.168-2.508-3.552a8.393 8.393 0 01-.475-2.673V32.5h-.3v.145a8.296 8.296 0 01-2.838 6.12l-9.166 7.95c-.455.402-.723.97-.723 1.579v9.094a.92.92 0 00.919.919H44.5a.92.92 0 00.919-.92v-8.082a2.1 2.1 0 00-.712-1.58L34.59 38.88z" fill="url(#paint1_linear_340_2692)"/></g><defs><linearGradient id="paint0_linear_340_2692" x1="32" y1=".5" x2="32" y2="64.5" gradientUnits="userSpaceOnUse"><stop stop-color="#20BA72"/><stop offset="1" stop-color="#20BA95"/></linearGradient><linearGradient id="paint1_linear_340_2692" x1="32" y1="32.5" x2="32" y2="58.307" gradientUnits="userSpaceOnUse"><stop stop-color="#20BA72"/><stop offset="1" stop-color="#20BA95"/></linearGradient><clipPath id="clip0_340_2692"><path fill="#fff" transform="translate(0 .5)" d="M0 0h64v64H0z"/></clipPath></defs></svg>