<svg width="167" height="36" fill="none" xmlns="http://www.w3.org/2000/svg"><path fill-rule="evenodd" clip-rule="evenodd" d="M33.353 28.835c6.001 0 10.866-4.893 10.866-10.928 0-6.035-4.865-10.928-10.866-10.928-6 0-10.865 4.893-10.865 10.928 0 6.035 4.864 10.928 10.865 10.928z" fill="#008075"/><path fill-rule="evenodd" clip-rule="evenodd" d="M11.24 28.835c6.001 0 10.866-4.893 10.866-10.928 0-6.035-4.865-10.927-10.865-10.927C5.24 6.98.375 11.872.375 17.907c0 6.035 4.865 10.928 10.866 10.928zm30.054 6.331a2.931 2.931 0 002.923-2.94 2.932 2.932 0 00-2.923-2.939 2.931 2.931 0 00-2.923 2.94 2.931 2.931 0 002.923 2.94z" fill="#FF9914"/><path fill-rule="evenodd" clip-rule="evenodd" d="M14.693.648h7.414c4.077 0 7.412 3.354 7.412 7.455v27.063h-7.413c-4.077 0-7.413-3.354-7.413-7.454V.648z" fill="#FF9914"/><path d="M63.096 21.037v2.198h-3.642v-2.198c-2.643-.271-4.738-1.076-6.285-2.414-1.546-1.357-2.32-3.12-2.32-5.29s.774-3.925 2.32-5.263c1.529-1.357 3.624-2.17 6.285-2.442V3.431h3.642v2.197c2.607.235 4.702 1.04 6.285 2.415 1.564 1.356 2.347 3.12 2.347 5.29s-.783 3.933-2.347 5.29c-1.583 1.374-3.678 2.179-6.285 2.414zm0-12.018v8.6c3.273-.38 4.91-1.809 4.91-4.286 0-2.496-1.637-3.934-4.91-4.314zm-8.55 4.314c0 2.477 1.636 3.897 4.908 4.259V9.046c-3.272.362-4.909 1.79-4.909 4.287zm29.954-2.47v-1.6h3.48v13.565H84.5v-1.601c-1.043 1.32-2.509 1.98-4.397 1.98-1.798 0-3.345-.687-4.64-2.062-1.276-1.392-1.914-3.092-1.914-5.1 0-1.989.638-3.68 1.915-5.073 1.294-1.392 2.841-2.089 4.64-2.089 1.887 0 3.353.66 4.396 1.98zm-6.42 7.95c.701.705 1.592 1.057 2.67 1.057 1.08 0 1.97-.352 2.671-1.057.72-.724 1.08-1.646 1.08-2.768 0-1.12-.36-2.034-1.08-2.74-.701-.723-1.591-1.085-2.67-1.085-1.08 0-1.97.362-2.67 1.085-.702.706-1.053 1.62-1.053 2.74 0 1.122.35 2.044 1.052 2.768zm23.994-9.55h3.426v13.565h-3.372v-7.922l-3.426 5.425h-.431l-3.453-5.48v7.976h-3.345V9.264H94.9l3.587 5.697 3.588-5.697zm10.345 7.705l6.339-7.705h2.589v13.565h-3.399v-7.705l-6.338 7.705h-2.59V9.263h3.399v7.705zm13.338-7.705h10.682v13.565h-3.48v-10.2h-3.722v4.53c0 4.177-1.897 6.067-5.691 5.67v-3.283c.719.18 1.267.054 1.645-.38.378-.434.566-1.166.566-2.197V9.263zm17.574 7.705l6.339-7.705h2.59v13.565h-3.399v-7.705l-6.339 7.705h-2.59V9.263h3.399v7.705zm16.954-7.705h6.312v13.565h-3.399v-4.233h-1.214l-3.102 4.233h-4.019l3.372-4.64a4.497 4.497 0 01-2.064-1.709 4.545 4.545 0 01-.769-2.55c0-1.248.45-2.342 1.349-3.282.881-.923 2.059-1.384 3.534-1.384zm2.913 3.12h-2.644c-.503 0-.921.154-1.254.461-.333.308-.499.706-.499 1.194s.166.877.499 1.166c.333.29.751.434 1.254.434h2.644v-3.255zM59.008 31.556l2.746 3.612h-1.732l-2.395-3.272v3.272h-1.492v-3.244l-2.395 3.244h-1.732l2.746-3.612-2.606-3.47h1.733l2.254 3.102v-3.103h1.492v3.117l2.254-3.117h1.733l-2.606 3.47zm5.866 1.02l3.606-4.49h1.169v7.082h-1.493v-4.505l-3.606 4.505h-1.169v-7.083h1.493v4.49zm7.613-4.49h5.395v7.082H76.36v-5.61h-2.352v2.635c0 1.105-.24 1.899-.718 2.38-.48.482-1.178.68-2.099.595v-1.43c.432.075.756-.017.972-.277.216-.26.324-.706.324-1.338v-4.038zm13.655 6.19c-.713.717-1.591 1.076-2.633 1.076-1.043 0-1.92-.359-2.634-1.076-.723-.727-1.085-1.61-1.085-2.65 0-1.038.362-1.921 1.085-2.648.713-.718 1.591-1.077 2.633-1.077 1.043 0 1.92.36 2.634 1.077.723.727 1.085 1.61 1.085 2.649s-.362 1.922-1.085 2.649zm-4.83-2.65c0 .643.21 1.177.633 1.601.423.426.944.638 1.564.638.62 0 1.14-.212 1.563-.638.422-.424.634-.958.634-1.6 0-.643-.212-1.176-.634-1.6-.422-.426-.944-.638-1.564-.638-.62 0-1.14.212-1.563.637-.422.425-.634.958-.634 1.6zm12.922-4.532H90.29v-1.332h3.944v1.332zm-3.605 5.482l3.605-4.49h1.17v7.082H93.91v-4.505l-3.606 4.505h-1.169v-7.083h1.493v4.49zm14.127-1.02l3.211 3.612h-1.817l-2.887-3.272v3.272h-1.521v-7.083h1.521v3.131l2.732-3.13h1.859l-3.098 3.47zm10.162 2.72c-.714.717-1.592 1.076-2.634 1.076-1.042 0-1.92-.359-2.634-1.076-.723-.727-1.085-1.61-1.085-2.65 0-1.038.362-1.921 1.085-2.648.714-.718 1.592-1.077 2.634-1.077 1.042 0 1.92.36 2.634 1.077.723.727 1.084 1.61 1.084 2.649s-.361 1.922-1.084 2.649zm-4.831-2.65c0 .643.211 1.177.633 1.601.423.426.944.638 1.564.638.62 0 1.141-.212 1.563-.638.423-.424.634-.958.634-1.6 0-.643-.211-1.176-.634-1.6-.422-.426-.943-.638-1.563-.638s-1.141.212-1.564.637c-.422.425-.633.958-.633 1.6zm13.458-3.54h1.549v7.082h-1.479v-4.66l-2.028 3.244h-.183l-2.014-3.23v4.646h-1.479v-7.083h1.549l2.042 3.273 2.043-3.273zm3.838 0h6.268v7.082h-1.521V29.53h-3.226v5.638h-1.521v-7.083zm9.106 0h5.394v7.082h-1.521v-5.61h-2.352v2.635c0 1.105-.239 1.899-.718 2.38-.479.482-1.179.68-2.099.595v-1.43c.432.075.756-.017.972-.277.216-.26.324-.706.324-1.338v-4.038zm14.5 4.192h-5.605c.112.53.368.94.767 1.233.399.293.895.439 1.486.439.798 0 1.404-.293 1.817-.878l1.254.736c-.686 1.03-1.714 1.544-3.085 1.544-1.136 0-2.061-.35-2.775-1.048-.704-.708-1.056-1.6-1.056-2.677 0-1.049.347-1.931 1.042-2.65.686-.717 1.578-1.076 2.676-1.076 1.024 0 1.869.364 2.536 1.091.666.727 1 1.61 1 2.649 0 .189-.019.401-.057.637zm-5.62-1.246h4.141c-.103-.558-.335-.987-.697-1.29-.361-.302-.8-.453-1.317-.453-.563 0-1.033.156-1.408.468-.376.311-.615.737-.719 1.275zm10.557.524l3.211 3.612h-1.817l-2.887-3.272v3.272h-1.521v-7.083h1.521v3.131l2.733-3.13h1.859l-3.099 3.47zm7.528 3.796c-1.061 0-1.948-.359-2.662-1.076-.704-.727-1.056-1.61-1.056-2.65 0-1.057.352-1.94 1.056-2.648.714-.718 1.601-1.077 2.662-1.077a3.64 3.64 0 011.874.496c.563.33.986.774 1.267 1.332l-1.309.765a1.813 1.813 0 00-.726-.8 2.141 2.141 0 00-1.12-.291c-.619 0-1.141.212-1.563.637-.413.434-.62.964-.62 1.587s.207 1.152.62 1.586c.422.425.944.638 1.563.638.414 0 .787-.097 1.12-.29.333-.194.585-.461.754-.801l1.31.75a3.351 3.351 0 01-1.303 1.346 3.64 3.64 0 01-1.867.496z" fill="#262F3B"/><path fill-rule="evenodd" clip-rule="evenodd" d="M14.713 28.264a7.668 7.668 0 01-.02-.553V7.543a10.927 10.927 0 017.413 10.364c0 4.814-3.095 8.9-7.393 10.357z" fill="#008075"/></svg>