<svg width="30" height="23" fill="none" xmlns="http://www.w3.org/2000/svg"><path fill-rule="evenodd" clip-rule="evenodd" d="M22.5 19a7.5 7.5 0 100-15 7.5 7.5 0 000 15z" fill="#008075"/><path fill-rule="evenodd" clip-rule="evenodd" d="M7.5 19a7.5 7.5 0 100-15 7.5 7.5 0 000 15zM28 23a2 2 0 100-4 2 2 0 000 4z" fill="#FF9914"/><path fill-rule="evenodd" clip-rule="evenodd" d="M10 0h5c2.75 0 5 2.235 5 4.967V23h-5c-2.75 0-5-2.235-5-4.967V0z" fill="#FF9914"/><path fill-rule="evenodd" clip-rule="evenodd" d="M10.014 18a5.133 5.133 0 01-.014-.374V4c2.906.98 5 3.745 5 7.002A7.382 7.382 0 0110.014 18z" fill="#008075"/></svg>