<svg width="151" height="35" fill="none" xmlns="http://www.w3.org/2000/svg"><rect width="151" height="35" rx="17.5" fill="#fff"/><path fill-rule="evenodd" clip-rule="evenodd" d="M28.5 25a7.5 7.5 0 100-15 7.5 7.5 0 000 15z" fill="#008075"/><path fill-rule="evenodd" clip-rule="evenodd" d="M13.5 25a7.5 7.5 0 100-15 7.5 7.5 0 000 15zM34 29a2 2 0 100-4 2 2 0 000 4z" fill="#FF9914"/><path fill-rule="evenodd" clip-rule="evenodd" d="M16 6h5c2.75 0 5 2.235 5 4.967V29h-5c-2.75 0-5-2.235-5-4.967V6z" fill="#FF9914"/><path fill-rule="evenodd" clip-rule="evenodd" d="M16.014 24a5.133 5.133 0 01-.014-.374V10c2.906.98 5 3.745 5 7.002A7.382 7.382 0 0116.014 24z" fill="#008075"/><path d="M53.942 22.5l-4.522-4.438V22.5h-1.302v-4.438L43.596 22.5h-1.722l5.012-4.942-4.606-4.998h1.596l4.242 4.606V12.56h1.302v4.606l4.242-4.606h1.596l-4.606 4.998 5.012 4.942h-1.722zm9.475 0l-5.278-4.732V22.5h-1.288v-9.94h1.288v4.312l4.34-4.312h1.694l-4.732 4.732 5.81 5.208h-1.834zm7.515-3.5l1.974-3.038h1.022L72.304 19l1.624 3.038h-1.022L70.932 19zm-2.422 0l1.974-3.038h1.022L69.882 19l1.624 3.038h-1.022L68.51 19zm11.502 1.428v-5.88h-.084c-1.13-.01-1.988.247-2.576.77-.579.513-.868 1.232-.868 2.156 0 .933.29 1.661.868 2.184.579.513 1.437.77 2.576.77h.084zM81.3 22.92h-1.288v-1.302h-.07c-1.475 0-2.641-.369-3.5-1.106-.85-.737-1.274-1.75-1.274-3.038 0-1.288.425-2.296 1.274-3.024.85-.728 2.016-1.092 3.5-1.092h.07V12.14H81.3v1.218h.084c1.484 0 2.646.364 3.486 1.092.85.728 1.274 1.736 1.274 3.024s-.43 2.3-1.288 3.038c-.85.737-2.007 1.106-3.472 1.106H81.3v1.302zm0-2.492h.084c1.139 0 1.997-.257 2.576-.77.588-.523.882-1.25.882-2.184 0-.924-.294-1.643-.882-2.156-.588-.523-1.447-.78-2.576-.77H81.3v5.88zm9.452 2.212a3.22 3.22 0 01-2.45-1.064c-.653-.71-.98-1.568-.98-2.576s.327-1.867.98-2.576a3.22 3.22 0 012.45-1.064c.514 0 .99.117 1.428.35.448.224.794.513 1.036.868V15.5h1.204v7h-1.204v-1.078c-.242.355-.588.649-1.036.882a3.095 3.095 0 01-1.428.336zm.182-1.106c.691 0 1.26-.243 1.708-.728.448-.485.672-1.087.672-1.806 0-.719-.224-1.32-.672-1.806-.448-.485-1.017-.728-1.708-.728-.7 0-1.274.243-1.722.728-.448.485-.672 1.087-.672 1.806 0 .719.224 1.32.672 1.806.448.485 1.022.728 1.722.728zm5.753-6.034h1.106l2.59 3.444 2.604-3.444h1.106v7h-1.204v-5.054l-2.506 3.304-2.492-3.304V22.5h-1.204v-7zm10.757 7h-1.078v-7h1.204v5.138l3.948-5.138h1.064v7h-1.19v-5.138l-3.948 5.138zm7.216.098c-.317 0-.527-.014-.63-.042v-1.078c.066.019.215.028.448.028.29 0 .504-.098.644-.294.14-.205.21-.565.21-1.078V15.5h5.404v7h-1.204v-5.894h-2.996v3.78c0 .719-.172 1.27-.518 1.652-.345.373-.798.56-1.358.56zm9.437-.098h-1.078v-7h1.204v5.138l3.948-5.138h1.064v7h-1.19v-5.138l-3.948 5.138zm6.236 0l2.828-2.744c-.551-.13-.976-.373-1.274-.728a1.986 1.986 0 01-.448-1.302c0-.644.219-1.176.658-1.596.448-.42 1.078-.63 1.89-.63h2.59v7h-1.204v-2.548h-.896l-2.632 2.548h-1.512zm3.724-3.626h1.316v-2.296h-1.316c-.943 0-1.414.387-1.414 1.162 0 .364.121.644.364.84.252.196.602.294 1.05.294zm7.775-2.912L143.806 19l-1.974 3.038h-1.022L142.434 19l-1.624-3.038h1.022zm-2.422 0L141.384 19l-1.974 3.038h-1.022L140.012 19l-1.624-3.038h1.022z" fill="#000"/></svg>