<svg width="64" height="64" fill="none" xmlns="http://www.w3.org/2000/svg"><path d="M32 3.2C16.082 3.2 3.2 16.084 3.2 32S16.082 60.8 32 60.8c15.915 0 28.8-12.884 28.8-28.8S47.914 3.2 32 3.2zM11.914 32c0-4.775 1.667-9.17 4.472-12.619l4.623 4.623c-.455 1.213-.948 2.388-1.402 3.6-.114.265-.228.455-.569.53-1.364.38-2.387 1.782-2.387 3.298v8.261h2.235c.19 0 .228.038.228.227v2.501c0 1.288.91 2.236 2.122 2.312 1.289.075 2.312-.758 2.425-2.009.076-.644.038-1.25.038-1.894v-1.1h12.998l3.903 3.904c.19.34.493.606.796.795l3.221 3.221A19.931 19.931 0 0132 52.123C20.934 52.084 11.915 43.065 11.915 32zm30.581 2.69c-1.175 0-2.122-.985-2.122-2.16 0-1.212.947-2.16 2.122-2.16 1.175 0 2.122.986 2.122 2.16.038 1.175-.947 2.16-2.122 2.16zm-11.179-6.82l-6.177-6.215c.076 0 .152-.038.266-.038h13.111c.796 0 1.213.265 1.478 1.023a268.819 268.819 0 011.895 5.002c0 .038.038.114.038.152-3.524.075-7.087.075-10.61.075zm-6.442 0h-2.842c.038-.076.038-.152.076-.228.227-.606.454-1.212.72-1.857l2.046 2.084zm-1.25 4.66c0 1.213-.948 2.16-2.123 2.16-1.174 0-2.122-.985-2.122-2.16 0-1.212.948-2.16 2.122-2.16 1.175-.037 2.123.948 2.123 2.16zM47.8 44.355l-2.918-2.918v-1.554c0-.151.038-.19.19-.19h2.274v-7.161c0-.531 0-1.024-.038-1.554-.19-1.402-1.25-2.577-2.577-2.918a.457.457 0 01-.19-.19c-.833-2.046-1.629-4.13-2.425-6.176-.303-.758-.758-1.402-1.478-1.857a4.003 4.003 0 00-1.97-.493H25.406c-.796 0-1.44.19-2.009.53l-3.676-3.675a19.853 19.853 0 0112.354-4.282c11.065 0 20.084 9.019 20.084 20.084-.075 4.661-1.667 8.943-4.358 12.354z" fill="#20BA72"/></svg>