<svg width="48" height="48" fill="none" xmlns="http://www.w3.org/2000/svg"><g fill="#20BA72"><path opacity=".4" d="M37.618 18.042c-.903 0-2.1-.02-3.589-.02-3.632 0-6.618-3.006-6.618-6.672V4.918A.911.911 0 0026.506 4H15.927C10.99 4 7 8.052 7 13.018v21.55C7 39.778 11.18 44 16.34 44h15.753C37.012 44 41 39.974 41 35.004V18.942a.906.906 0 00-.905-.916c-.846.006-1.86.016-2.477.016z"/><path opacity=".4" d="M32.167 5.135c-.598-.622-1.642-.194-1.642.668v5.274c0 2.212 1.822 4.032 4.034 4.032 1.394.016 3.33.02 4.974.016a.954.954 0 00.686-1.616c-2.11-2.194-5.888-6.126-8.052-8.374z"/><path fill-rule="evenodd" clip-rule="evenodd" d="M17.947 22.775h6.77a1.49 1.49 0 100-2.978h-6.77a1.49 1.49 0 000 2.978zm0 9.989h10.888a1.49 1.49 0 100-2.978H17.947a1.49 1.49 0 000 2.978z"/></g></svg>