<svg width="64" height="64" fill="none" xmlns="http://www.w3.org/2000/svg"><g clip-path="url(#clip0_335_1503)"><path d="M35.875 20.875h-7.75v7.5h7.75a3.755 3.755 0 003.75-3.75 3.755 3.755 0 00-3.75-3.75z" fill="url(#paint0_linear_335_1503)"/><path d="M54.625 0H9.375C4.205 0 0 4.206 0 9.375v45.25C0 59.795 4.206 64 9.375 64h45.25C59.795 64 64 59.794 64 54.625V9.375C64 4.205 59.794 0 54.625 0zm-18.75 35.875h-7.75V49c0 1.035-.84 1.875-1.875 1.875H22.5A1.875 1.875 0 0120.625 49V15.25c0-1.036.84-1.875 1.875-1.875h13.375c6.204 0 11.25 5.046 11.25 11.25s-5.046 11.25-11.25 11.25z" fill="url(#paint1_linear_335_1503)"/></g><defs><linearGradient id="paint0_linear_335_1503" x1="33.875" y1="20.875" x2="33.875" y2="28.375" gradientUnits="userSpaceOnUse"><stop stop-color="#20BA72"/><stop offset="1" stop-color="#20BA95"/></linearGradient><linearGradient id="paint1_linear_335_1503" x1="32" y1="0" x2="32" y2="64" gradientUnits="userSpaceOnUse"><stop stop-color="#20BA72"/><stop offset="1" stop-color="#20BA95"/></linearGradient><clipPath id="clip0_335_1503"><path fill="#fff" d="M0 0h64v64H0z"/></clipPath></defs></svg>