<svg width="49" height="48" fill="none" xmlns="http://www.w3.org/2000/svg"><g clip-path="url(#clip0_409_3774)"><path d="M31.262 28.148a2.79 2.79 0 00-2.787 2.786 2.79 2.79 0 002.787 2.787 2.79 2.79 0 002.786-2.787 2.79 2.79 0 00-2.786-2.786z" fill="url(#paint0_linear_409_3774)"/><path d="M17.374 14.26a2.79 2.79 0 00-2.787 2.788 2.79 2.79 0 002.787 2.786 2.789 2.789 0 002.786-2.786 2.79 2.79 0 00-2.786-2.787z" fill="url(#paint1_linear_409_3774)"/><path d="M24.334 0c-13.234 0-24 10.766-24 24 0 13.233 10.766 24 24 24 13.233 0 23.998-10.767 23.998-24 0-13.234-10.765-24-23.998-24zm-6.96 11.259a5.795 5.795 0 015.789 5.789 5.796 5.796 0 01-5.789 5.788 5.796 5.796 0 01-5.79-5.788 5.796 5.796 0 015.79-5.79zm-1.76 23.583a1.497 1.497 0 01-2.123 0 1.5 1.5 0 010-2.123l19.562-19.561a1.501 1.501 0 012.122 2.123l-19.56 19.561zm15.648 1.881a5.796 5.796 0 01-5.79-5.79 5.796 5.796 0 015.79-5.788 5.796 5.796 0 015.788 5.789 5.796 5.796 0 01-5.788 5.789z" fill="url(#paint2_linear_409_3774)"/></g><defs><linearGradient id="paint0_linear_409_3774" x1="24.333" y1="0" x2="24.333" y2="48" gradientUnits="userSpaceOnUse"><stop stop-color="#20BA72"/><stop offset="1" stop-color="#20BA95"/></linearGradient><linearGradient id="paint1_linear_409_3774" x1="24.333" y1="0" x2="24.333" y2="48" gradientUnits="userSpaceOnUse"><stop stop-color="#20BA72"/><stop offset="1" stop-color="#20BA95"/></linearGradient><linearGradient id="paint2_linear_409_3774" x1="24.333" y1="0" x2="24.333" y2="48" gradientUnits="userSpaceOnUse"><stop stop-color="#20BA72"/><stop offset="1" stop-color="#20BA95"/></linearGradient><clipPath id="clip0_409_3774"><path fill="#fff" transform="translate(.333)" d="M0 0h48v48H0z"/></clipPath></defs></svg>