<svg width="64" height="65" fill="none" xmlns="http://www.w3.org/2000/svg"><g clip-path="url(#clip0_340_2680)"><path d="M14.184 48.873l34.189-34.189a3.524 3.524 0 000-4.982l-3.089-3.088-1.992-1.993-3.09-3.09a3.524 3.524 0 00-4.982 0L1.03 35.72a3.524 3.524 0 000 4.982l8.171 8.17a3.524 3.524 0 004.982 0z" fill="url(#paint0_linear_340_2680)"/><path d="M47.618 4.278l-1.993-1.993-1.268 1.268 1.993 1.993 1.268-1.268z" fill="#000"/><path d="M62.586 56.258l-16.381-16.38-6.828 6.827 16.381 16.381a4.828 4.828 0 006.828-6.828z" fill="url(#paint1_linear_340_2680)"/><path d="M41.75 40.259l-2.828-2.829c-2.11-2.11-6.06-1.59-8.807 1.156L14.1 54.601a4.231 4.231 0 01-5.978 0L5.7 52.177a4.229 4.229 0 01-.575-5.249l-2.022-2.021c-2.118 2.76-1.92 6.738.604 9.263l2.424 2.424a7.053 7.053 0 009.964 0l16.013-16.013c1.762-1.762 3.955-2.024 4.822-1.156l2.829 2.828 1.993-1.994z" fill="url(#paint2_linear_340_2680)"/></g><defs><linearGradient id="paint0_linear_340_2680" x1="24.702" y1=".5" x2="24.702" y2="49.904" gradientUnits="userSpaceOnUse"><stop stop-color="#20BA72"/><stop offset="1" stop-color="#20BA95"/></linearGradient><linearGradient id="paint1_linear_340_2680" x1="51.688" y1="39.877" x2="51.688" y2="64.5" gradientUnits="userSpaceOnUse"><stop stop-color="#20BA72"/><stop offset="1" stop-color="#20BA95"/></linearGradient><linearGradient id="paint2_linear_340_2680" x1="21.701" y1="36.133" x2="21.701" y2="58.654" gradientUnits="userSpaceOnUse"><stop stop-color="#20BA72"/><stop offset="1" stop-color="#20BA95"/></linearGradient><clipPath id="clip0_340_2680"><path fill="#fff" transform="translate(0 .5)" d="M0 0h64v64H0z"/></clipPath></defs></svg>