<svg width="64" height="64" fill="none" xmlns="http://www.w3.org/2000/svg"><g clip-path="url(#clip0_335_1536)"><path d="M52.214 0a51.89 51.89 0 00-20.328 4.11 52.034 52.034 0 00-16.593 11.183A52.034 52.034 0 004.109 31.886 51.89 51.89 0 000 52.214V64h28.259V52.214c0-13.21 10.746-23.955 23.955-23.955H64V0H52.214zM37.607 18.722a37.715 37.715 0 00-7.594 4.706l-2.367-2.967a41.53 41.53 0 018.36-5.178l1.601 3.439zm15.884-3.5a37.97 37.97 0 00-7.216.69l-.724-3.725c2.6-.504 5.27-.76 7.94-.76h1.529v3.795h-1.53zM16.386 46.306a37.997 37.997 0 00-.576 6.595v2.182h-3.794v-2.182c0-2.435.212-4.876.632-7.255l3.738.66zm-.884-10.073a41.522 41.522 0 015.11-8.616l3.006 2.315a37.684 37.684 0 00-4.642 7.827l-3.474-1.526z" fill="url(#paint0_linear_335_1536)"/></g><defs><linearGradient id="paint0_linear_335_1536" x1="32" y1="0" x2="32" y2="64" gradientUnits="userSpaceOnUse"><stop stop-color="#20BA72"/><stop offset="1" stop-color="#20BA95"/></linearGradient><clipPath id="clip0_335_1536"><path fill="#fff" d="M0 0h64v64H0z"/></clipPath></defs></svg>