<svg width="20" height="21" fill="none" xmlns="http://www.w3.org/2000/svg"><path opacity=".4" d="M13.395 2.167h2.821c1.169 0 2.116.954 2.116 2.133v2.845a2.124 2.124 0 01-2.116 2.134h-2.821a2.124 2.124 0 01-2.116-2.134V4.3c0-1.179.947-2.133 2.116-2.133z" fill="#6E7378"/><path fill-rule="evenodd" clip-rule="evenodd" d="M3.781 2.167h2.822c1.169 0 2.116.954 2.116 2.133v2.845A2.124 2.124 0 016.603 9.28H3.781a2.124 2.124 0 01-2.115-2.134V4.3c0-1.179.947-2.133 2.115-2.133zm0 9.554h2.822c1.169 0 2.116.955 2.116 2.133V16.7a2.125 2.125 0 01-2.116 2.133H3.781A2.125 2.125 0 011.666 16.7v-2.846c0-1.178.947-2.133 2.115-2.133zm12.435 0h-2.821a2.124 2.124 0 00-2.116 2.133V16.7c0 1.178.947 2.133 2.116 2.133h2.821a2.125 2.125 0 002.116-2.133v-2.846a2.124 2.124 0 00-2.116-2.133z" fill="#6E7378"/></svg>