<svg width="25" height="25" fill="none" xmlns="http://www.w3.org/2000/svg"><path opacity=".4" d="M10.583 16.458H4.008c-.832 0-1.508.664-1.508 1.481 0 .817.676 1.482 1.508 1.482h6.575c.832 0 1.508-.665 1.508-1.482s-.675-1.481-1.508-1.481zM22.5 6.879c0-.817-.676-1.48-1.507-1.48h-6.575c-.832 0-1.508.663-1.508 1.48s.676 1.481 1.508 1.481h6.575c.831 0 1.507-.664 1.507-1.481z" fill="#313438"/><path d="M9.378 6.879c0 1.866-1.54 3.38-3.44 3.38-1.898 0-3.438-1.514-3.438-3.38C2.5 5.013 4.04 3.5 5.939 3.5c1.9 0 3.439 1.513 3.439 3.379zM22.5 17.9c0 1.865-1.538 3.378-3.438 3.378-1.899 0-3.439-1.513-3.439-3.379 0-1.867 1.54-3.38 3.439-3.38 1.9 0 3.439 1.513 3.439 3.38z" fill="#313438"/></svg>