<svg width="119" height="67" fill="none" xmlns="http://www.w3.org/2000/svg"><path fill-rule="evenodd" clip-rule="evenodd" d="M6.994 41.331l15.71 3.672v-10.45l-5.162 1.128v2.859l-5.386-1.247V24.088l5.386-1.246v2.863l5.162 1.128v-10.46l-15.71 3.682v21.276zM1.58 14.225L59.5.675c19.818 4.65 39.646 9.28 59.469 13.921l.031 32.2-6.973 1.632v-4.171l2.871-.67-.026-25.772L59.5 4.847 4.113 17.805v25.777L59.51 56.535l7.735-1.808v4.177l-7.735 1.803C39.672 56.082 19.84 51.426 0 46.79V14.596l1.581-.37zm74.396 35.537V11.624L60.8 8.071v45.235l15.177-3.544zM65.96 46.827l4.854-1.133V15.688l-4.853-1.138v32.276zm-12.9-32.252l-4.854 1.123v17.949l4.854.767V14.575zm-4.854-4.15l-5.161 1.194v38.143l5.161 1.205V38.921l10.016 1.581V8.107L53.06 9.276v.026l-4.854 1.122zm48.112 34.578l5.162-1.205V28.754l2.803 8.452 2.578-7.061V42.54l5.162-1.205v-21.28l-4.917-1.15-2.938 6.573-2.594-7.86-5.261-1.241v28.625h.005zM83.723 47.95l4.854-15.816V46.81l5.162-1.205V15.78l-5.162-1.21-4.854 15.816v-16.95l-5.162-1.21v36.927l5.162-1.205zM40.465 12.222L25.287 15.77v5.274l5.006-1.169-.01 26.9 5.177 1.21v-29.32l5.005-1.17v-5.273z" fill="#fff"/><path opacity=".5" fill-rule="evenodd" clip-rule="evenodd" d="M93.352 52.435v5.775l-7.437 1.735v-2.498l4.906-1.148v-.778l-4.906 1.149v-6.314l2.531-.598v3.827l2.38-.556V49.2l2.532-.562v3.796h-.006zM0 48.037l59.51 13.916 7.735-1.808v4.172l-7.735 1.808L0 52.209v-4.172zm112.027 1.638l6.963-1.628v4.172l-6.963 1.627v-4.171zM68.508 63.993l2.532-.567v-7.092l2.38-.551v1.071l2.531.551v-4.712l-7.437 1.73v9.57h-.005zm8.706-2.01l2.532-.591v-1.123l4.906-1.154v-8.467l-7.375 1.73-.063.016v9.59zm2.526-4.212v-3.477l2.38-.56v3.475l-2.38.562zm14.88.139l2.532-.587v-7.097l2.38-.551v7.092l2.531-.593V46.59l-7.437 1.725v9.595h-.005zm8.701-2.034l2.532-.587v-7.093l2.38-.55v7.086l2.531-.592v-9.58l-7.438 1.726v9.59h-.005z" fill="#fff"/></svg>