<svg width="20" height="23" fill="none" xmlns="http://www.w3.org/2000/svg"><path d="M15.441 1.019a29.434 29.434 0 00-11.002 0C2.838 1.364.82 3.3.47 4.822a21.726 21.726 0 000 8.99c.418 1.52 2.437 3.457 3.97 3.802.069 0 .138.07.138.139v4.356c0 .207.279.346.418.138l2.09-2.143s1.67-1.729 1.949-2.006c0 0 .07-.069.14-.069 2.088.07 4.247-.138 6.336-.484 1.601-.346 3.62-2.282 3.969-3.803a21.725 21.725 0 000-8.99c-.418-1.451-2.437-3.388-4.039-3.733zm.07 13c-.348.691-.766 1.244-1.462 1.59l-.627.207c-.279-.069-.488-.138-.697-.207-2.228-.899-4.317-2.143-5.988-3.941A16.632 16.632 0 014.439 8.21c-.278-.622-.557-1.175-.766-1.798-.209-.553.14-1.106.488-1.521.348-.415.766-.692 1.253-.899.348-.207.696-.07.975.207.557.692 1.114 1.383 1.532 2.144.278.484.209 1.037-.279 1.383-.139.07-.209.138-.348.277-.07.069-.209.138-.278.276-.14.208-.14.415-.07.623.557 1.59 1.602 2.835 3.203 3.526.279.138.488.208.836.208.487-.07.696-.623 1.044-.9.348-.276.766-.276 1.184-.068.348.207.696.484 1.114.76.348.277.696.484 1.045.76.209.14.278.485.139.83zm-2.925-5.187c-.139 0-.07 0 0 0-.278 0-.348-.138-.418-.345 0-.139 0-.346-.07-.484a1.314 1.314 0 00-.487-.761l-.417-.207c-.21-.07-.349-.07-.558-.07-.208-.069-.278-.207-.278-.414 0-.139.209-.277.348-.277 1.114.07 1.95.691 2.09 2.005v.277c0 .138-.07.276-.21.276zM11.89 5.79c-.348-.138-.696-.277-1.114-.346-.14 0-.348-.069-.488-.069-.209 0-.348-.138-.278-.346 0-.207.14-.345.348-.276.696.069 1.323.207 1.95.484 1.253.622 1.95 1.66 2.158 3.042v.899c-.07.277-.557.346-.626 0 0-.069-.07-.207-.07-.276a4.01 4.01 0 00-.418-1.798c-.418-.623-.905-1.038-1.462-1.314zm3.76 4.149c-.209 0-.348-.208-.348-.415 0-.415-.07-.83-.14-1.245-.278-2.213-2.088-4.01-4.247-4.356-.348-.07-.696-.07-.975-.138-.209 0-.487 0-.557-.277-.07-.207.14-.415.348-.415h.14c2.854.07.139 0 0 0 2.924.07 5.361 2.005 5.849 4.91.07.484.139.968.139 1.52.14.208 0 .416-.209.416z" fill="#7C509A"/></svg>