<svg width="20" height="21" fill="none" xmlns="http://www.w3.org/2000/svg"><path d="M17.03 3.46A9.907 9.907 0 0010.01.55C4.518.55.07 4.983.07 10.456c0 1.732.486 3.463 1.32 4.918L0 20.5l5.283-1.385a10.163 10.163 0 004.727 1.177c5.491 0 9.94-4.433 9.94-9.906-.07-2.563-1.043-5.056-2.92-6.927zm-2.224 10.529c-.208.554-1.182 1.108-1.668 1.177-.417.07-.973.07-1.53-.07-.347-.138-.834-.276-1.39-.553-2.502-1.04-4.1-3.533-4.24-3.74-.139-.14-1.043-1.317-1.043-2.564s.626-1.8.835-2.078c.208-.277.486-.277.695-.277h.486c.14 0 .348-.07.556.416.209.484.695 1.731.765 1.8a.44.44 0 010 .416c-.07.139-.14.277-.278.416-.14.138-.278.346-.348.415-.139.139-.278.278-.139.485.14.277.626 1.04 1.39 1.732.974.831 1.738 1.108 2.016 1.247s.418.07.556-.07c.14-.138.626-.692.765-.97.14-.276.348-.207.556-.138.209.07 1.46.693 1.669.832.278.138.417.207.486.277.07.207.07.692-.139 1.247z" fill="#48C95F"/></svg>